<svg xmlns="http://www.w3.org/2000/svg" width="150" height="30" viewBox="0 0 150 30"><path id="logo" data-name="Layer 2" d="M0,2.4H4.8v8.9h9.7V2.4h4.8V23.9H14.5V15.4H4.8v8.5H0ZM26.2.7a2.3,2.3,0,0,1,.7,1.9,2.3,2.3,0,0,1-.7,1.9,2.5,2.5,0,0,1-1.8.8,2.7,2.7,0,0,1-2.6-2.7A2.6,2.6,0,0,1,24.4,0,2.4,2.4,0,0,1,26.2.7ZM22.1,7.3h4.6V23.9H22.1Zm23.3,0v15c.2,5-4.3,7.8-8.8,7.7a12.9,12.9,0,0,1-7.1-2.2l1.8-3.3a8.2,8.2,0,0,0,5,1.7,5.1,5.1,0,0,0,3.2-1,3.3,3.3,0,0,0,1.2-2.7V20.6A5.9,5.9,0,0,1,35.8,23c-4.4.1-7.3-3.7-7.2-8s2.9-7.9,7.2-7.8a5.8,5.8,0,0,1,4.9,2.4V7.3ZM39.7,18.2a4.2,4.2,0,0,0,1-3.1,4.5,4.5,0,0,0-1-3.1,3.9,3.9,0,0,0-5.6,0,4.9,4.9,0,0,0,0,6.2,3.8,3.8,0,0,0,5.5,0ZM62.8,8.9a6.3,6.3,0,0,1,1.6,4.6V23.9H59.7v-9a3.4,3.4,0,0,0-.9-2.5,3.2,3.2,0,0,0-2.3-.9,3.6,3.6,0,0,0-2.8,1.2,4.7,4.7,0,0,0-1,3v8.2H48V1.1h4.7v9.1c1.1-2,3-3,5.7-3.1A6.2,6.2,0,0,1,62.8,8.9Zm14.5,14a7.6,7.6,0,0,1-4.2,1.2,5,5,0,0,1-3.7-1.4A4.6,4.6,0,0,1,67.9,19V11.3H65.6V8.1h2.3V3.5h4.7V8.1H77v3.3H72.6v6.8c0,1.2.5,1.9,1.5,1.9a6,6,0,0,0,2.3-.6ZM90.9,8.2a8.1,8.1,0,0,1,4.2,7.4A8.1,8.1,0,0,1,90.9,23a10.6,10.6,0,0,1-9.2,0,8.1,8.1,0,0,1-4.2-7.4,7.8,7.8,0,0,1,4.2-7.3,10.6,10.6,0,0,1,9.2,0Zm-7.5,4.2a5,5,0,0,0-1.2,3.3,4.7,4.7,0,0,0,1.2,3.2,4,4,0,0,0,5.9,0,4.2,4.2,0,0,0,1.1-3.2,4.9,4.9,0,0,0-1.1-3.3A4,4,0,0,0,83.4,12.4Zm10.8-5h4.7l3.7,11.9,3.5-11.9h4.6l3.6,11.9,3.6-11.9h4.7l-6,16.6h-4.7L108.4,13l-3.5,10.9h-4.7ZM136,9.5c1.6,1.6,2.2,4.8,2,7.5H126.2a4.3,4.3,0,0,0,4.3,3.3,5.8,5.8,0,0,0,4.1-1.7l2.5,2.5a8.8,8.8,0,0,1-7,2.9,8,8,0,0,1-8.6-8.4A8.1,8.1,0,0,1,130,7.2,7.8,7.8,0,0,1,136,9.5Zm-2.4,4.7a4.2,4.2,0,0,0-1-2.6,3.6,3.6,0,0,0-2.6-.9,3.5,3.5,0,0,0-2.6.9,5,5,0,0,0-1.3,2.6ZM146.8,8a7.2,7.2,0,0,1,3.2-.8v4.4h-.7a4.2,4.2,0,0,0-3.4,1.2,3.7,3.7,0,0,0-1.3,3.1v8h-4.7V7.3h4.7v3A6.1,6.1,0,0,1,146.8,8Z" fill="#fff"/></svg>